<?xml version="1.0" standalone="no"?>
<!DOCTYPE svg PUBLIC "-//W3C//DTD SVG 20010904//EN"
 "http://www.w3.org/TR/2001/REC-SVG-20010904/DTD/svg10.dtd">
<svg version="1.0" xmlns="http://www.w3.org/2000/svg"
 width="1082.000000pt" height="1082.000000pt" viewBox="0 0 1082.000000 1082.000000"
 preserveAspectRatio="xMidYMid meet">
<metadata>
Created by potrace 1.11, written by Peter Selinger 2001-2013
</metadata>
<g transform="translate(0.000000,1082.000000) scale(0.100000,-0.100000)"
fill="#000000" stroke="none">
<path d="M8910 10772 c-14 -2 -28 -9 -32 -16 -6 -8 -8 -7 -8 2 0 8 -5 10 -12
6 -7 -5 -29 -9 -48 -10 -84 -5 -110 -9 -110 -16 0 -4 -7 -4 -17 -1 -9 4 -14 2
-11 -3 4 -5 -17 -9 -47 -9 -29 0 -51 -3 -49 -6 5 -9 -12 -15 -76 -28 -83 -17
-95 -21 -98 -30 -2 -5 -12 -6 -24 -3 -14 3 -19 1 -14 -6 4 -7 2 -12 -3 -12 -6
0 -11 6 -11 13 0 7 -5 5 -11 -5 -5 -10 -16 -15 -24 -12 -9 4 -15 0 -15 -7 0
-11 -3 -11 -10 1 -8 12 -10 12 -10 -5 0 -17 -2 -17 -10 -5 -9 13 -11 13 -20 0
-5 -8 -10 -11 -10 -6 0 6 -7 1 -16 -10 -8 -10 -13 -14 -10 -7 5 8 0 8 -18 0
-13 -7 -23 -14 -21 -17 2 -3 -11 -6 -28 -7 -18 -2 -33 -7 -35 -13 -2 -5 -12
-10 -23 -10 -10 0 -19 -4 -19 -10 0 -5 -3 -9 -7 -9 -5 1 -10 0 -13 -1 -10 -3
-45 -11 -57 -12 -7 -1 -13 -5 -13 -10 0 -5 -5 -6 -12 -2 -6 4 -17 -1 -25 -11
-9 -14 -13 -15 -13 -4 -1 10 -5 9 -15 -5 -8 -11 -18 -16 -22 -13 -3 4 -15 -1
-26 -10 -15 -13 -18 -14 -12 -3 8 13 7 13 -8 1 -9 -7 -17 -10 -17 -5 0 5 -5 1
-11 -9 -6 -9 -14 -15 -20 -12 -5 4 -9 1 -9 -5 0 -6 -4 -8 -10 -5 -5 3 -10 1
-10 -5 0 -6 -4 -8 -10 -5 -5 3 -10 1 -10 -5 0 -6 -4 -8 -10 -5 -5 3 -10 1 -10
-5 0 -7 -7 -10 -15 -6 -8 3 -15 0 -15 -6 0 -6 -3 -8 -7 -5 -3 4 -18 -3 -31
-15 -14 -13 -22 -16 -18 -8 4 8 0 6 -9 -5 -9 -11 -25 -19 -37 -17 -14 3 -18 0
-12 -9 5 -9 2 -10 -9 -6 -10 4 -17 1 -17 -6 0 -8 -4 -6 -10 3 -5 8 -10 10 -10
4 0 -5 -16 -16 -35 -24 -19 -7 -32 -17 -29 -22 3 -4 -1 -5 -9 -2 -8 3 -17 -3
-21 -13 -6 -15 -8 -15 -16 -3 -8 13 -10 12 -10 -2 0 -10 -3 -17 -7 -17 -24 4
-35 -3 -29 -17 5 -14 4 -15 -8 -5 -11 9 -15 8 -20 -5 -5 -12 -10 -14 -17 -7
-5 5 -28 8 -49 6 -28 -3 -40 0 -40 9 0 9 -3 9 -10 -2 -5 -8 -10 -10 -10 -5 0
6 -16 12 -37 13 -20 2 -41 6 -47 10 -6 3 -26 7 -44 8 -18 2 -39 7 -46 13 -6 5
-29 11 -49 13 -20 1 -37 6 -37 10 0 4 -7 8 -16 8 -9 0 -13 -5 -9 -12 4 -7 1
-6 -7 2 -16 19 -38 24 -38 9 0 -7 -5 -8 -12 -3 -7 5 -33 9 -58 9 -25 0 -47 3
-50 7 -7 9 -123 14 -136 6 -6 -4 -14 -4 -18 -1 -12 12 -36 12 -36 0 0 -8 -3
-8 -8 -2 -8 11 -153 14 -146 3 3 -4 -2 -5 -10 -2 -25 10 -275 10 -269 0 4 -5
0 -5 -8 0 -21 13 -39 14 -39 1 0 -8 -3 -8 -8 -2 -7 10 -142 14 -142 4 0 -3
-13 -4 -30 -1 -21 3 -30 0 -30 -9 0 -11 -2 -11 -10 1 -8 12 -10 12 -10 1 0 -8
-3 -11 -6 -8 -4 3 -14 2 -24 -3 -10 -5 -20 -6 -24 -3 -9 10 -36 13 -36 4 0 -4
-14 -6 -30 -5 -17 1 -32 -2 -35 -6 -3 -5 -16 -7 -30 -5 -14 1 -28 -1 -30 -5
-3 -5 -14 -6 -25 -3 -13 3 -20 0 -20 -8 0 -11 -2 -11 -10 1 -7 11 -10 11 -10
2 0 -7 -4 -10 -10 -7 -5 3 -10 2 -10 -3 0 -5 -12 -7 -26 -4 -18 3 -25 1 -20
-6 4 -7 -2 -9 -19 -6 -14 2 -25 0 -25 -4 0 -5 -11 -7 -24 -5 -13 3 -27 0 -31
-7 -5 -8 -11 -8 -23 2 -12 10 -14 10 -8 1 5 -9 0 -13 -18 -13 -13 0 -27 -6
-29 -12 -4 -10 -6 -10 -6 0 -1 9 -6 10 -20 2 -11 -5 -35 -12 -53 -14 -18 -2
-37 -4 -41 -5 -5 0 -6 -5 -3 -10 4 -5 -2 -7 -13 -4 -10 3 -22 0 -25 -6 -4 -5
-14 -7 -23 -4 -10 4 -14 2 -10 -4 4 -6 1 -11 -6 -10 -31 1 -48 -4 -42 -12 3
-6 -6 -8 -20 -5 -14 2 -25 0 -25 -6 0 -6 -4 -9 -8 -6 -5 3 -20 -1 -35 -9 -15
-8 -27 -12 -27 -10 0 2 -13 -1 -30 -6 -18 -7 -27 -15 -23 -22 4 -7 0 -7 -9 1
-14 11 -18 10 -27 -5 -8 -13 -10 -14 -11 -4 0 12 -3 12 -12 3 -7 -7 -23 -12
-36 -12 -15 0 -22 -5 -19 -13 3 -8 -4 -12 -21 -11 -26 1 -53 -15 -46 -27 2 -3
-8 -5 -21 -3 -14 1 -25 -3 -25 -9 0 -6 -8 -1 -17 12 -10 13 -25 31 -35 41 -9
10 -13 21 -10 25 4 3 -1 3 -10 0 -8 -3 -23 1 -32 10 -9 9 -25 17 -35 18 -11 1
-18 3 -16 5 2 2 -2 10 -8 17 -9 9 -16 10 -25 3 -9 -8 -11 -7 -6 7 5 13 4 16
-4 11 -7 -4 -12 -2 -12 4 0 6 -4 8 -10 5 -5 -3 -10 -1 -10 5 0 7 -6 10 -12 8
-7 -3 -19 1 -26 9 -8 7 -18 10 -24 7 -6 -4 -9 -3 -6 2 7 11 -17 35 -26 27 -3
-4 -6 0 -6 8 0 11 -2 11 -10 -1 -8 -13 -10 -12 -10 3 0 10 -8 17 -20 17 -11 0
-20 5 -20 10 0 6 -5 10 -11 10 -6 0 -24 9 -40 21 -17 12 -39 19 -49 16 -11 -3
-18 0 -17 6 1 6 -8 13 -20 15 -13 2 -23 9 -23 15 0 7 -17 19 -38 28 -20 10
-53 24 -72 32 -19 9 -38 13 -42 11 -4 -3 -8 0 -8 6 0 6 -4 9 -9 6 -5 -3 -20 3
-33 14 -14 11 -28 16 -32 13 -3 -3 -6 -1 -6 5 0 7 -10 12 -23 12 -13 0 -28 5
-34 11 -6 6 -17 12 -24 13 -43 9 -69 19 -69 28 0 6 -8 4 -17 -3 -14 -12 -16
-12 -8 0 6 11 4 13 -8 8 -10 -3 -17 -2 -17 3 0 5 -7 7 -15 4 -8 -4 -15 -2 -15
3 0 5 -10 9 -22 8 -13 -1 -28 5 -35 14 -11 14 -12 14 -13 1 0 -11 -3 -11 -8
-3 -6 10 -57 21 -114 26 -10 1 -18 5 -18 9 0 4 -7 5 -15 2 -8 -4 -15 -1 -15 5
0 9 -5 9 -21 0 -15 -8 -19 -8 -15 0 7 10 -8 14 -57 14 -9 0 -17 3 -17 7 0 4
-8 7 -17 8 -28 3 -187 4 -198 2 -5 -1 -12 -2 -15 -1 -20 8 -101 4 -104 -4 -2
-5 -5 -4 -5 4 -1 10 -7 10 -27 -4 -15 -9 -23 -12 -20 -6 5 7 1 9 -8 5 -9 -3
-13 -10 -10 -15 3 -5 -5 -9 -18 -10 -13 0 -18 -3 -11 -6 9 -3 7 -11 -7 -26
-11 -11 -20 -31 -20 -43 0 -13 -5 -26 -11 -29 -6 -4 -8 -13 -5 -21 3 -8 1 -14
-3 -14 -5 0 -8 -16 -7 -35 1 -19 -3 -36 -9 -38 -6 -2 -5 -9 2 -19 7 -8 10 -18
7 -21 -4 -4 -8 -17 -10 -29 -2 -13 -6 -34 -10 -48 -3 -14 -6 -37 -6 -52 0 -15
-4 -25 -9 -23 -4 3 -8 -3 -8 -12 0 -10 -2 -34 -4 -53 -2 -19 2 -38 7 -42 8 -6
7 -11 -2 -16 -9 -6 -10 -16 -3 -34 5 -13 6 -30 2 -36 -4 -7 -6 -32 -6 -57 1
-25 -2 -45 -7 -45 -5 0 -6 -5 -3 -10 4 -6 1 -17 -5 -25 -10 -12 -10 -15 0 -15
10 0 10 -3 0 -15 -10 -12 -10 -15 1 -15 9 0 10 -3 3 -8 -14 -9 -14 -42 0 -42
7 0 8 -3 1 -8 -14 -9 -14 -45 0 -54 6 -5 6 -8 -2 -8 -12 0 -12 -24 0 -36 3 -4
2 -15 -3 -25 -7 -12 -7 -20 0 -24 7 -4 7 -12 2 -18 -10 -14 -10 -67 1 -84 4
-6 3 -14 -3 -18 -7 -4 -7 -12 0 -25 5 -10 10 -30 10 -44 0 -14 5 -28 10 -31 8
-5 7 -11 0 -20 -8 -10 -8 -19 -1 -34 6 -11 8 -22 4 -24 -6 -4 -9 -102 -3 -102
2 0 9 -37 12 -62 1 -13 5 -23 9 -23 3 0 5 -10 4 -22 -1 -13 0 -27 3 -33 3 -5
6 -21 7 -35 1 -14 5 -31 9 -38 4 -7 2 -12 -4 -12 -7 0 -7 -7 1 -22 7 -13 12
-24 11 -25 -1 -2 -2 -4 -1 -5 0 -2 2 -12 4 -23 2 -11 8 -21 13 -23 5 -1 8 -16
6 -33 -2 -16 0 -28 4 -25 5 3 8 -5 9 -17 1 -52 4 -66 15 -79 7 -7 13 -30 13
-50 0 -21 3 -38 8 -38 4 0 7 -14 7 -31 0 -25 3 -30 16 -25 14 5 15 4 4 -9 -10
-12 -10 -15 0 -15 7 0 10 -6 7 -14 -3 -8 -3 -17 1 -20 3 -4 7 -17 9 -29 2 -12
10 -27 18 -33 8 -6 12 -14 8 -17 -3 -4 -1 -13 5 -20 7 -8 9 -17 5 -20 -3 -4
-2 -7 4 -7 11 0 8 -55 -6 -92 -5 -14 -7 -29 -4 -32 4 -3 1 -6 -6 -6 -7 0 -9
-4 -6 -10 3 -5 0 -10 -7 -10 -9 0 -9 -3 2 -10 11 -7 11 -10 2 -10 -7 0 -10 -5
-7 -10 4 -6 1 -9 -7 -8 -8 2 -13 -6 -12 -19 0 -13 -5 -23 -12 -23 -13 0 -13
-17 -1 -37 6 -9 3 -11 -10 -6 -10 3 -15 3 -11 -2 4 -4 3 -14 -3 -22 -6 -7 -9
-22 -6 -32 2 -11 -3 -28 -12 -38 -9 -10 -17 -27 -19 -38 -5 -35 -8 -43 -22
-61 -13 -16 -13 -17 0 -9 12 7 13 6 3 -6 -10 -12 -10 -18 0 -28 9 -10 9 -12
-3 -9 -11 2 -15 -5 -14 -24 0 -15 -3 -25 -7 -22 -4 2 -8 -4 -8 -13 -2 -50 -6
-83 -11 -83 -3 0 -6 -17 -8 -37 -1 -20 -8 -41 -15 -46 -9 -7 -9 -10 0 -14 9
-3 10 -10 3 -24 -8 -13 -7 -19 0 -19 6 0 8 -5 3 -12 -11 -19 -11 -81 0 -96 7
-9 6 -11 -6 -6 -12 4 -15 0 -13 -20 2 -14 0 -26 -3 -26 -3 0 -6 -20 -6 -45 0
-25 5 -45 10 -45 7 0 7 -3 0 -8 -13 -9 -14 -115 0 -124 7 -5 6 -8 -2 -8 -12 0
-12 -17 0 -36 3 -6 3 -14 -1 -18 -11 -12 -9 -96 2 -96 8 0 8 -3 1 -8 -12 -8
-13 -22 -2 -39 4 -6 3 -15 -3 -18 -8 -5 -8 -11 0 -20 6 -8 7 -16 2 -19 -10 -6
-9 -57 2 -74 3 -6 2 -13 -3 -17 -7 -3 -7 -15 -1 -29 5 -13 6 -27 2 -30 -11
-12 -10 -36 1 -36 9 0 9 -2 1 -8 -14 -9 -14 -42 0 -42 7 0 7 -3 1 -8 -14 -10
-14 -72 -1 -72 7 0 7 -3 1 -8 -5 -4 -10 -18 -10 -32 0 -14 5 -28 10 -32 6 -5
6 -8 -2 -8 -13 0 -12 -18 1 -39 6 -10 5 -12 -2 -7 -7 4 -12 3 -12 -3 0 -5 5
-13 10 -16 6 -4 7 -12 3 -18 -11 -18 -10 -87 2 -87 7 0 7 -3 0 -8 -13 -9 -14
-115 0 -124 7 -5 6 -8 -2 -8 -12 0 -12 -24 0 -36 3 -4 3 -14 -2 -23 -6 -14 -8
-56 -1 -63 1 -2 4 -16 6 -33 3 -16 9 -35 15 -41 5 -6 5 -14 1 -18 -10 -11 -9
-30 3 -38 6 -5 5 -11 -4 -17 -10 -6 -11 -13 -2 -29 7 -13 7 -23 2 -27 -12 -7
-10 -45 2 -45 4 0 5 -5 1 -12 -10 -16 -11 -117 -2 -111 5 2 8 -1 8 -6 0 -6 -4
-11 -9 -11 -4 0 -8 -13 -7 -30 1 -16 5 -30 9 -30 5 0 5 -6 1 -12 -11 -18 -12
-48 -2 -54 4 -3 5 -11 1 -17 -11 -17 -13 -37 -3 -37 4 0 6 -12 4 -27 -1 -16 4
-32 14 -41 9 -7 11 -11 5 -7 -7 3 -13 1 -13 -4 0 -6 6 -11 13 -11 7 0 8 -3 2
-8 -11 -8 -13 -71 -3 -87 4 -6 3 -17 -2 -25 -5 -9 -4 -20 3 -29 9 -12 9 -13 0
-7 -7 4 -13 3 -13 -3 0 -5 5 -13 10 -16 8 -5 7 -11 -1 -21 -7 -9 -8 -14 -1
-14 6 0 11 -8 11 -17 0 -42 10 -113 17 -124 4 -8 3 -9 -4 -5 -14 9 -15 -3 -3
-23 6 -9 6 -22 1 -31 -6 -11 -5 -21 2 -28 9 -9 9 -12 1 -12 -7 0 -11 -9 -10
-20 1 -11 5 -20 10 -20 5 0 4 -7 -4 -16 -8 -10 -9 -18 -3 -22 5 -4 11 -20 12
-36 1 -16 6 -34 11 -40 6 -7 6 -18 1 -26 -5 -8 -6 -19 -2 -25 9 -13 13 -33 15
-75 2 -19 6 -41 10 -47 5 -7 4 -13 -2 -13 -5 0 -9 -9 -8 -20 1 -11 6 -20 11
-20 6 0 6 -4 0 -10 -8 -8 -7 -25 1 -56 6 -25 11 -61 10 -80 -1 -19 1 -34 5
-34 4 0 7 -16 8 -35 1 -19 6 -44 12 -54 7 -14 7 -22 0 -26 -6 -4 -8 -11 -4
-16 3 -5 8 -21 10 -36 3 -15 11 -34 17 -42 10 -12 9 -13 -3 -6 -13 8 -13 7 -1
-8 7 -9 11 -17 7 -17 -3 0 -1 -12 5 -27 6 -16 13 -39 15 -53 7 -45 9 -55 17
-67 5 -8 3 -13 -5 -13 -8 0 -9 -3 -2 -8 10 -7 41 -120 36 -134 -1 -5 3 -8 9
-8 5 0 8 -4 5 -8 -2 -4 4 -27 14 -50 11 -24 14 -40 8 -36 -8 5 -9 2 -5 -10 4
-10 7 -20 7 -22 0 -2 8 -4 18 -4 14 0 15 -2 2 -10 -12 -8 -12 -10 -1 -10 8 0
11 -3 8 -7 -4 -3 -2 -12 4 -20 6 -7 8 -13 4 -13 -5 0 -1 -8 7 -17 9 -10 31
-47 49 -83 19 -36 37 -66 42 -68 4 -2 7 -9 7 -16 0 -6 9 -18 20 -26 11 -8 20
-20 20 -28 0 -7 4 -10 10 -7 5 3 10 1 10 -5 0 -6 5 -8 10 -5 5 3 10 -2 10 -11
0 -12 3 -15 10 -8 7 7 4 23 -9 50 -15 32 -34 104 -32 124 0 3 -6 14 -14 26 -8
12 -10 26 -5 34 5 8 6 18 4 22 -9 13 -15 50 -20 118 -2 36 -6 76 -7 90 -1 14
2 31 8 39 7 11 7 13 -1 8 -7 -4 -18 1 -25 11 -13 16 -13 16 5 2 11 -8 21 -14
23 -12 9 6 23 1 18 -8 -3 -6 0 -13 9 -16 8 -3 12 -12 9 -20 -3 -7 2 -17 12
-20 9 -4 14 -13 11 -20 -3 -8 1 -14 9 -14 9 0 12 -6 9 -15 -4 -8 1 -17 9 -21
9 -3 18 -12 21 -20 4 -10 1 -13 -7 -9 -6 4 -4 0 6 -8 9 -8 17 -20 17 -26 0 -7
4 -10 9 -6 6 3 8 -4 6 -15 -2 -11 1 -20 6 -20 6 0 7 -4 4 -10 -3 -5 -1 -10 4
-10 6 0 11 -7 11 -15 0 -8 5 -15 11 -15 5 0 7 -5 4 -10 -3 -6 1 -13 9 -16 9
-3 13 -10 10 -15 -3 -5 3 -9 13 -10 10 0 13 -3 6 -5 -15 -6 -5 -34 11 -34 7 0
18 -11 24 -25 6 -14 16 -25 21 -25 6 0 8 -7 5 -15 -4 -10 0 -15 12 -15 16 0
17 -2 4 -10 -8 -5 -10 -10 -4 -10 7 0 14 -9 17 -20 3 -13 1 -18 -6 -13 -7 4
-8 0 -4 -11 5 -14 3 -17 -8 -13 -8 4 -19 -1 -24 -11 -7 -12 -10 -13 -11 -3 0
8 -8 4 -20 -10 -10 -13 -19 -20 -20 -15 0 6 -7 1 -16 -10 -8 -10 -12 -12 -8
-4 5 10 0 9 -14 -4 -12 -11 -22 -16 -22 -12 0 4 -12 -6 -26 -21 -14 -15 -22
-21 -18 -13 7 13 6 13 -9 1 -13 -11 -15 -17 -6 -28 10 -11 9 -12 -5 -7 -19 7
-49 -14 -39 -29 3 -5 1 -7 -5 -3 -6 3 -23 -6 -39 -21 -15 -16 -40 -34 -55 -42
-14 -7 -29 -22 -31 -32 -8 -30 -22 -22 -41 21 -9 22 -20 39 -24 39 -20 -3 -32
2 -27 11 3 6 -3 10 -15 10 -12 0 -18 5 -15 10 5 9 -7 14 -27 11 -4 0 -5 8 -3
19 2 11 -1 19 -7 17 -6 -1 -12 5 -13 14 -4 24 -34 66 -51 73 -8 3 -14 12 -14
21 0 9 -9 15 -22 15 -15 0 -19 3 -11 8 9 6 6 15 -12 34 -13 14 -21 29 -18 32
4 3 -1 6 -9 6 -9 0 -19 7 -22 16 -3 8 -11 12 -17 8 -8 -4 -9 -3 -5 4 4 7 2 12
-4 12 -6 0 -8 5 -5 10 3 5 1 10 -4 10 -6 0 -21 11 -33 25 -11 13 -26 22 -31
18 -6 -3 -7 -1 -3 5 3 6 -5 19 -19 30 -14 11 -25 25 -25 31 0 6 -5 11 -11 11
-14 0 -79 67 -71 74 3 3 0 6 -6 6 -7 0 -22 11 -34 25 -11 13 -25 22 -29 19 -4
-2 -11 1 -15 7 -4 8 -3 9 4 5 8 -5 10 -2 6 9 -4 9 -9 14 -12 11 -7 -8 -45 15
-60 36 -7 10 -18 15 -24 12 -6 -4 -8 -2 -5 3 8 13 -60 56 -74 48 -5 -4 -9 1
-9 10 0 9 -4 13 -10 10 -6 -3 -10 1 -10 9 0 9 -5 16 -11 16 -5 0 -7 -6 -3 -12
3 -7 -6 -1 -20 15 -15 15 -31 25 -37 22 -5 -4 -9 1 -9 10 0 9 -4 13 -10 10 -6
-3 -10 -1 -10 5 0 6 -4 8 -10 5 -5 -3 -10 -1 -10 5 0 6 -4 8 -10 5 -6 -3 -10
1 -10 11 0 12 -6 15 -21 11 -12 -3 -18 -3 -15 0 3 4 -1 15 -10 25 -12 12 -21
15 -29 8 -9 -7 -16 -5 -26 7 -13 16 -12 17 4 4 10 -8 17 -9 17 -3 0 13 -36 26
-50 17 -5 -3 -10 1 -10 10 0 10 5 13 12 9 7 -4 8 -3 4 5 -6 9 -11 9 -24 -1
-12 -10 -14 -10 -8 0 4 7 2 12 -4 12 -6 0 -9 4 -6 8 3 4 -9 7 -25 6 -16 -1
-35 4 -42 11 -9 8 -19 10 -30 4 -10 -6 -18 -5 -23 2 -5 8 -3 9 6 4 9 -5 11 -4
6 4 -4 6 -12 8 -18 5 -5 -4 -24 -8 -41 -9 -45 -4 -69 -15 -63 -31 3 -9 0 -11
-11 -7 -10 4 -21 -1 -30 -13 -8 -10 -18 -20 -23 -20 -6 -1 -15 -2 -20 -3 -6 0
-9 -6 -8 -12 2 -6 -3 -14 -11 -17 -9 -3 -11 0 -6 9 4 8 -3 2 -16 -12 -13 -15
-32 -29 -42 -33 -10 -3 -15 -10 -12 -16 3 -5 2 -10 -4 -10 -5 0 -16 -13 -24
-28 -12 -24 -12 -32 -1 -47 7 -10 11 -22 8 -27 -6 -9 15 -75 31 -97 7 -11 7
-13 -2 -7 -9 5 -11 2 -7 -8 3 -9 9 -14 14 -11 4 2 5 -7 2 -20 -2 -14 0 -25 6
-25 6 0 9 -9 7 -20 -2 -11 1 -22 6 -25 5 -4 7 -11 4 -16 -4 -5 -3 -9 2 -9 4 0
9 -16 10 -37 1 -20 6 -39 10 -42 5 -3 8 -16 7 -29 -1 -12 3 -22 8 -22 6 0 8
-6 5 -14 -3 -7 0 -19 6 -26 9 -10 9 -11 -2 -5 -10 6 -12 4 -5 -6 16 -26 32
-79 21 -72 -6 4 -7 1 -2 -7 4 -7 9 -22 9 -34 1 -12 8 -20 16 -18 11 3 11 0 0
-12 -10 -13 -10 -16 0 -16 8 0 11 -3 7 -6 -3 -4 0 -22 8 -40 10 -25 11 -34 2
-34 -9 0 -9 -2 0 -8 6 -4 13 -19 15 -32 2 -14 7 -31 12 -39 6 -10 5 -12 -2 -7
-7 4 -5 -7 3 -29 9 -19 12 -35 9 -35 -3 0 1 -12 11 -26 9 -15 12 -23 6 -20 -6
4 -11 2 -11 -3 0 -6 5 -11 11 -11 5 0 7 -5 4 -10 -3 -6 -1 -10 5 -10 6 0 9 -4
5 -10 -3 -5 1 -24 8 -42 8 -18 12 -38 10 -45 -2 -6 0 -14 6 -17 6 -4 8 -13 4
-21 -3 -8 -1 -15 5 -15 5 0 10 -6 9 -13 -1 -43 4 -67 14 -61 8 4 8 1 1 -13
-11 -19 0 -50 22 -65 8 -6 8 -8 0 -8 -6 0 -11 -7 -11 -15 0 -8 4 -15 9 -15 5
0 6 -5 3 -10 -3 -6 -2 -10 4 -10 5 0 8 -9 6 -20 -2 -11 1 -20 6 -20 6 0 7 -9
4 -20 -3 -11 -2 -20 2 -20 5 0 8 -13 7 -30 -1 -16 2 -30 8 -30 5 0 2 -7 -6
-16 -19 -19 -21 -28 -3 -18 9 6 9 5 0 -8 -7 -8 -9 -19 -5 -23 4 -5 1 -5 -6 -1
-7 4 -13 2 -14 -6 0 -7 -2 -17 -2 -23 -1 -5 -5 -16 -9 -22 -5 -7 -5 -13 0 -13
4 0 2 -4 -5 -9 -7 -4 -14 -18 -15 -29 -1 -12 -5 -22 -9 -22 -4 0 -5 -7 -2 -15
4 -8 1 -15 -6 -15 -6 0 -8 -4 -5 -10 3 -5 2 -10 -4 -10 -5 0 -8 -11 -6 -25 1
-14 -2 -28 -7 -31 -5 -3 -7 -12 -4 -19 2 -7 -1 -21 -9 -31 -9 -13 -10 -24 -4
-36 7 -12 6 -18 -1 -18 -7 0 -8 -6 -1 -19 6 -10 8 -21 4 -24 -11 -11 -11 -57
-1 -57 7 0 7 -4 0 -12 -5 -8 -6 -22 -1 -33 4 -11 8 -32 8 -47 1 -16 7 -28 14
-28 8 0 7 -4 -3 -10 -8 -5 -10 -10 -5 -10 6 0 11 -16 12 -36 1 -20 9 -44 17
-53 9 -10 16 -22 16 -27 0 -5 -5 -2 -10 6 -5 8 -10 10 -10 4 0 -6 7 -17 15
-24 8 -7 15 -21 15 -31 0 -11 5 -19 10 -19 6 0 10 -7 10 -16 0 -9 5 -12 13 -8
9 6 9 5 0 -8 -11 -12 -9 -18 7 -33 11 -10 20 -25 20 -33 0 -8 6 -12 14 -9 10
4 13 1 9 -9 -3 -8 3 -22 13 -30 11 -9 13 -13 7 -9 -9 4 -11 1 -7 -9 3 -9 11
-13 17 -9 6 4 8 0 4 -10 -4 -11 -1 -17 8 -17 8 0 15 -7 15 -16 0 -8 4 -12 10
-9 5 3 10 -1 10 -10 0 -9 9 -19 20 -22 11 -3 17 -9 14 -14 -3 -5 6 -20 20 -34
14 -14 23 -25 21 -25 -2 0 10 -14 27 -30 16 -17 34 -30 39 -30 5 0 8 -6 7 -12
-2 -7 7 -14 20 -16 12 -2 20 -7 17 -12 -3 -5 4 -11 15 -15 11 -4 20 -15 20
-26 0 -12 4 -17 11 -13 8 4 8 0 0 -15 -11 -21 -5 -27 22 -22 5 1 6 -3 2 -9 -3
-6 -12 -7 -18 -3 -7 4 -5 -4 4 -18 13 -19 14 -30 7 -43 -8 -14 -7 -17 1 -12 7
5 11 -2 11 -19 0 -17 4 -24 12 -19 6 4 8 3 5 -3 -10 -16 4 -74 16 -66 5 3 7 1
3 -5 -3 -6 -1 -22 5 -36 11 -23 27 -31 52 -27 5 1 6 -3 3 -8 -6 -9 62 -47 77
-43 4 1 6 -1 6 -5 -1 -5 -1 -15 1 -23 1 -11 4 -9 10 5 8 19 9 18 9 -4 1 -18 5
-22 21 -18 10 3 19 2 18 -2 -2 -22 4 -32 17 -27 8 3 15 1 15 -5 0 -6 7 -9 14
-6 11 4 13 1 9 -10 -4 -10 -2 -14 8 -11 7 2 26 -9 42 -25 15 -16 31 -26 34
-23 3 3 17 -6 30 -20 12 -14 23 -21 23 -17 1 4 7 -3 15 -17 8 -14 14 -19 15
-12 0 6 5 12 11 12 5 0 8 -4 5 -8 -2 -4 -1 -14 5 -22 6 -12 9 -12 9 -2 0 18
30 -11 30 -30 0 -10 3 -9 10 2 7 12 10 12 10 1 0 -7 6 -11 15 -7 8 3 14 0 12
-6 -1 -6 8 -17 21 -23 12 -7 28 -19 35 -28 7 -9 19 -17 27 -19 8 -2 23 -12 33
-22 12 -14 17 -15 17 -5 1 8 7 3 14 -10 10 -18 15 -20 19 -10 4 11 6 11 6 -1
1 -17 64 -70 83 -70 8 0 20 -9 28 -19 7 -11 17 -18 22 -15 4 3 8 0 8 -6 0 -7
7 -9 17 -6 10 4 14 4 11 1 -4 -4 3 -17 15 -30 16 -16 26 -20 35 -12 9 7 11 5
6 -8 -5 -13 -4 -16 4 -11 7 4 28 -10 52 -34 22 -23 45 -38 50 -35 6 4 10 3 9
-2 -3 -20 2 -27 11 -13 8 12 10 11 10 -7 0 -16 5 -21 19 -18 10 2 18 -2 17 -8
0 -7 2 -12 6 -12 4 0 15 -10 23 -22 9 -13 25 -23 35 -23 10 0 20 -4 22 -10 1
-5 14 -11 28 -14 14 -2 25 -5 25 -6 0 -1 10 -3 22 -4 13 -2 23 1 23 6 0 5 5 6
10 3 6 -4 8 -11 5 -16 -3 -5 1 -6 9 -3 10 4 16 1 16 -7 0 -12 2 -12 9 0 6 9
14 10 27 3 12 -7 26 -7 36 -1 11 6 19 5 24 -2 4 -8 9 -7 15 2 5 8 9 9 9 4 0
-12 40 -12 59 -1 7 5 16 4 20 -1 8 -13 54 -9 59 6 2 6 8 9 13 5 5 -3 9 0 9 7
0 7 3 10 6 6 3 -3 19 7 35 24 16 16 31 24 34 19 4 -6 11 -8 16 -4 5 3 9 2 8
-3 -4 -21 2 -33 17 -33 8 0 12 -5 9 -10 -4 -6 -1 -18 7 -27 9 -12 9 -15 1 -9
-16 9 -16 1 -2 -26 8 -16 8 -19 -1 -13 -8 5 -11 3 -8 -6 4 -12 346 -14 2261
-17 2002 -2 2257 0 2257 13 0 8 -5 15 -11 15 -6 0 -3 7 6 16 15 15 15 18 -1
41 -9 14 -11 22 -5 19 10 -7 16 19 12 52 -1 8 4 21 11 30 10 12 10 14 1 8 -16
-9 -17 6 -1 22 9 9 9 12 0 12 -6 0 -9 7 -6 15 4 8 11 12 18 9 6 -3 2 2 -9 11
-17 14 -18 17 -5 26 11 8 12 12 3 16 -7 2 -13 9 -13 14 0 6 4 8 8 5 4 -2 8 4
8 15 0 10 -4 19 -8 19 -5 0 -4 10 3 21 9 17 8 23 -2 30 -12 7 -12 9 0 9 10 0
11 3 2 14 -9 11 -9 16 0 22 8 5 9 3 4 -6 -5 -8 -4 -11 2 -7 12 8 5 56 -11 76
-9 12 -8 13 7 8 11 -4 16 -3 12 4 -4 6 -7 26 -7 45 0 19 -4 31 -9 28 -5 -3 -6
2 -3 10 3 9 11 13 18 9 6 -3 2 4 -8 16 -17 19 -17 21 -3 15 13 -5 16 -2 10 12
-5 13 -3 15 7 9 8 -5 11 -4 6 3 -4 6 -14 9 -24 6 -11 -4 -9 2 8 17 18 16 20
20 7 16 -15 -6 -17 -3 -12 14 5 15 4 19 -5 14 -9 -6 -9 -3 -1 13 6 11 16 23
23 25 7 3 2 6 -12 7 -14 1 -20 4 -13 6 7 3 9 12 6 21 -5 12 -2 14 8 9 11 -6
10 -4 -1 6 -21 18 -27 46 -6 29 11 -9 16 -9 22 0 4 7 3 9 -3 6 -14 -9 -37 19
-28 33 3 5 2 10 -3 10 -5 0 -7 12 -4 26 4 21 2 25 -9 19 -11 -7 -12 -6 -2 6
10 13 10 19 -1 34 -7 10 -11 27 -8 37 2 10 -1 18 -7 18 -6 0 -10 3 -10 8 1 4
1 20 0 35 -1 20 -5 26 -13 21 -9 -5 -9 -2 1 9 11 14 11 20 0 34 -12 14 -12 16
0 8 11 -6 12 -5 5 6 -9 14 -13 29 -16 61 -1 10 -6 18 -10 18 -4 0 -5 9 -3 20
2 11 0 22 -5 25 -5 3 -6 13 -3 22 5 12 3 14 -7 8 -10 -6 -11 -4 -4 6 13 21 14
39 1 39 -7 0 -5 5 3 10 8 5 10 10 5 10 -6 0 -12 12 -13 28 -1 15 -7 29 -12 30
-6 2 -10 17 -10 33 0 16 -5 29 -11 29 -6 0 -9 7 -5 15 3 9 -1 30 -9 48 -7 17
-16 45 -20 60 -3 17 -10 25 -17 21 -6 -4 -8 -3 -4 4 8 13 -15 102 -25 96 -5
-2 -6 5 -4 16 2 11 0 20 -5 20 -5 0 -6 7 -3 17 4 10 2 14 -4 10 -6 -4 -10 1
-10 11 0 33 -3 43 -11 38 -4 -2 -9 10 -10 27 -2 18 -7 34 -12 35 -6 2 -8 8 -4
13 3 5 -2 12 -11 15 -13 5 -14 9 -4 14 9 6 8 12 -5 25 -9 10 -15 24 -12 31 3
8 1 14 -4 14 -6 0 -10 9 -10 19 0 11 -4 23 -10 26 -5 3 -10 15 -10 26 0 10 -4
19 -10 19 -5 0 -10 12 -10 26 0 17 -4 23 -12 18 -9 -5 -9 -2 1 9 9 12 10 17 2
17 -7 0 -10 4 -6 9 3 5 1 12 -5 16 -6 4 -8 11 -5 16 4 5 1 9 -5 9 -6 0 -9 4
-6 8 3 5 -7 26 -21 47 -14 21 -21 35 -14 31 6 -4 11 -2 11 3 0 6 -4 11 -10 11
-5 0 -10 9 -10 20 0 11 -5 20 -11 20 -5 0 -8 4 -4 9 3 5 -2 17 -11 25 -8 9
-12 16 -8 16 4 0 -1 10 -12 22 -10 12 -13 18 -5 13 10 -5 12 -4 7 3 -4 7 -15
12 -24 13 -10 0 -12 3 -5 5 17 7 4 34 -16 34 -14 0 -14 2 -1 10 9 6 11 13 5
17 -5 5 -10 13 -10 18 -1 19 -58 130 -74 143 -9 7 -11 11 -4 8 8 -4 7 4 -3 23
-8 17 -17 40 -19 53 -3 13 -9 24 -15 26 -5 2 -10 9 -10 16 0 18 -24 66 -33 66
-5 0 -6 4 -3 9 3 5 -1 12 -10 15 -8 3 -12 10 -9 16 3 6 -1 13 -9 16 -9 3 -14
10 -11 14 3 5 0 14 -7 22 -7 7 -13 19 -14 26 -1 6 -2 19 -2 27 -1 8 -12 15
-24 16 -21 0 -21 1 -4 8 18 7 18 8 3 14 -9 3 -17 13 -17 22 0 8 -5 15 -10 15
-6 0 -9 6 -8 13 2 6 -2 11 -9 10 -7 -2 -10 4 -6 12 3 9 -1 23 -9 33 -25 29
-33 46 -17 37 12 -8 12 -6 0 8 -7 9 -10 24 -7 33 5 12 2 15 -10 10 -13 -5 -14
-4 -6 7 9 10 8 17 -1 26 -9 10 -9 12 2 9 7 -2 16 3 19 11 3 9 0 11 -9 6 -8 -5
-5 1 6 12 11 11 23 19 27 17 4 -3 9 4 13 15 5 17 37 35 57 32 4 0 4 7 1 16 -4
11 -3 14 5 9 8 -5 10 -2 6 8 -4 11 0 16 11 16 11 0 15 5 11 16 -3 8 -2 12 4 9
6 -3 10 -1 10 5 0 6 5 8 10 5 6 -3 10 1 10 10 0 9 4 14 9 10 5 -3 12 4 16 15
3 11 9 19 13 19 20 -3 25 2 12 11 -13 8 -12 10 3 10 9 0 16 3 15 8 -4 10 39
52 46 44 3 -3 6 0 6 6 0 7 -6 12 -12 12 -7 1 -2 7 11 14 18 10 20 15 10 19
-10 4 -9 6 4 6 10 1 15 5 12 11 -4 6 1 7 11 3 10 -4 15 -2 11 4 -3 5 2 16 11
25 9 8 23 24 31 36 8 11 19 18 25 15 6 -4 4 2 -4 12 -9 11 -10 16 -2 11 7 -4
12 -2 12 4 0 6 4 8 10 5 6 -4 7 1 3 11 -4 12 -3 15 5 10 7 -4 12 -2 12 4 0 6
5 8 13 4 8 -6 8 -3 -1 9 -12 14 -11 16 8 12 19 -4 20 -2 8 12 -9 12 -10 15 0
9 13 -8 45 17 35 28 -4 3 -1 6 5 6 7 0 12 9 12 21 0 11 4 18 9 14 5 -3 12 3
14 12 4 17 5 17 6 1 0 -10 6 -18 11 -18 12 0 9 -77 -3 -97 -4 -6 -3 -14 3 -18
6 -4 4 -17 -5 -36 -9 -16 -13 -34 -10 -39 3 -5 1 -11 -5 -15 -6 -4 -8 -11 -5
-16 4 -5 1 -9 -4 -9 -6 0 -11 -8 -11 -18 0 -10 -7 -27 -15 -38 -8 -10 -15 -25
-15 -32 0 -7 -7 -28 -15 -48 -8 -19 -15 -38 -15 -42 -1 -4 -6 -13 -12 -19 -6
-7 -8 -13 -4 -13 4 0 -3 -18 -14 -40 -11 -22 -17 -40 -13 -40 5 0 3 -4 -3 -8
-6 -4 -21 -30 -34 -59 -13 -29 -26 -51 -31 -50 -4 1 -7 -2 -7 -7 0 -5 -6 -13
-14 -17 -8 -6 -9 -9 -2 -9 13 0 159 155 159 169 0 5 12 20 27 34 15 14 24 28
21 31 -4 3 -2 6 4 6 6 0 14 11 17 25 4 14 11 25 17 25 6 0 7 5 4 10 -3 6 -1
10 6 10 7 0 10 3 6 6 -6 6 52 107 65 112 4 2 8 12 8 22 0 9 7 23 15 30 8 7 15
20 15 29 1 20 24 53 34 46 3 -3 2 0 -3 6 -11 13 -3 39 11 39 6 0 5 -8 -3 -17
-11 -16 -11 -16 1 -5 8 7 15 25 16 40 0 15 5 26 11 25 5 -1 10 4 10 12 0 8 -5
11 -11 8 -6 -4 -5 1 2 10 8 9 11 21 7 26 -3 7 0 8 10 5 11 -5 14 -2 9 10 -4
10 -1 16 7 16 7 0 9 3 6 7 -4 3 -1 13 6 21 10 13 9 14 -1 8 -7 -4 -3 9 8 30
17 30 19 39 8 46 -9 6 -7 8 7 6 15 -2 19 2 17 16 -2 10 1 15 6 12 6 -4 8 3 4
16 -3 15 -2 19 7 14 14 -9 11 16 -4 26 -6 4 -2 8 8 8 10 0 15 4 12 10 -3 5 -1
19 5 30 8 15 8 20 -2 20 -10 0 -10 2 0 9 24 15 38 55 31 88 -3 18 -2 30 2 27
13 -8 11 10 -3 25 -10 11 -10 13 0 7 6 -4 12 -2 12 4 0 6 4 9 9 5 6 -3 6 6 1
25 -5 16 -6 30 -2 30 4 0 13 9 20 21 8 12 9 19 4 15 -5 -3 -9 8 -8 24 1 19 6
30 15 30 11 0 9 4 -5 16 -10 8 -14 13 -7 10 6 -4 14 -2 18 4 3 5 1 10 -5 10
-6 0 -8 5 -5 10 4 6 12 7 18 3 7 -4 4 5 -6 20 -14 22 -14 25 -2 21 11 -5 13
-2 8 12 -3 10 -2 15 3 12 5 -4 10 7 10 23 1 16 -2 26 -7 23 -5 -3 -9 0 -9 5 0
6 7 11 15 11 8 0 15 5 15 11 0 5 -3 8 -8 6 -4 -3 -7 8 -7 23 -1 16 3 26 7 24
7 -5 12 10 9 29 -1 4 3 17 9 27 9 16 7 20 -7 21 -15 0 -15 2 -3 7 8 4 15 18
14 32 0 32 16 71 27 64 5 -3 9 0 9 5 0 6 -6 11 -12 11 -7 1 -3 6 10 13 12 7
19 17 15 22 -4 4 0 5 9 2 12 -4 16 -1 13 14 -2 10 1 19 6 19 9 0 33 52 29 66
-1 3 6 11 16 18 9 7 14 18 10 24 -4 7 -2 10 7 6 8 -3 14 2 15 11 1 8 3 21 4
29 1 8 7 12 14 9 9 -3 12 2 9 16 -2 12 -1 19 4 17 4 -3 13 4 20 16 10 16 10
19 -1 12 -10 -6 -11 -5 -1 8 7 8 10 18 6 21 -3 4 1 7 10 7 9 0 19 5 23 12 5 7
3 8 -7 3 -11 -7 -11 -4 1 11 26 33 50 81 43 88 -3 3 -1 6 6 6 8 0 11 8 8 19
-3 14 -1 18 9 14 9 -3 14 2 14 15 0 12 5 24 11 27 6 4 8 13 5 21 -3 8 0 13 7
11 7 -1 11 8 11 20 -1 13 2 20 7 17 5 -2 11 8 15 23 4 15 12 31 18 35 8 5 7 8
-1 8 -9 0 -7 7 5 20 9 12 18 25 18 30 1 6 2 11 3 13 2 1 4 13 7 27 2 14 12 31
21 38 13 9 14 12 2 12 -11 0 -11 2 -1 8 7 5 15 19 17 33 3 13 9 25 15 27 5 2
10 8 10 13 0 6 -6 7 -12 3 -7 -4 -5 2 5 13 9 11 14 23 10 26 -3 4 -1 7 6 7 9
0 12 9 9 25 -3 13 -1 22 3 19 8 -5 13 10 10 29 0 4 4 7 9 7 6 0 10 9 10 19 0
11 5 23 11 26 6 4 8 13 5 21 -3 8 0 14 6 14 7 0 6 5 -2 15 -11 13 -10 14 1 10
10 -4 14 4 15 25 1 18 -3 27 -10 24 -6 -3 -3 1 7 9 10 9 18 18 18 21 -1 9 10
40 20 60 8 14 8 16 -3 10 -10 -6 -10 -5 -2 7 6 8 11 28 10 46 0 17 2 29 5 27
9 -5 20 26 14 36 -3 5 -1 11 5 15 6 4 8 11 5 16 -4 5 -1 9 6 9 9 0 9 3 0 14
-9 11 -9 16 -1 21 7 4 10 16 7 26 -3 12 -1 17 6 12 6 -4 8 0 4 9 -3 9 0 21 6
27 8 8 8 11 -2 11 -7 0 -9 5 -4 13 4 6 9 23 10 37 2 25 10 65 13 65 7 0 5 47
-2 51 -4 3 -5 11 -1 17 10 16 16 46 17 85 1 17 4 32 7 32 3 0 5 23 4 50 -2 28
2 50 7 50 5 0 6 10 3 21 -4 13 -3 19 2 16 13 -8 11 36 -2 45 -6 5 -6 8 2 8 12
0 12 24 0 36 -4 4 -3 12 2 18 14 17 14 28 -1 37 -8 6 -9 9 -1 9 12 0 12 17 0
36 -3 6 -3 14 1 18 10 11 9 40 -3 48 -6 5 -5 8 2 8 9 0 10 7 3 24 -5 13 -6 27
-2 30 11 12 10 36 -1 36 -8 0 -7 3 1 9 15 9 15 20 1 37 -5 6 -6 14 -2 18 12
12 11 66 -1 66 -6 0 -5 4 2 9 15 9 15 20 1 37 -5 6 -6 14 -2 18 12 12 12 36 0
36 -8 0 -8 3 -2 8 14 10 15 62 1 62 -7 0 -7 3 -1 8 6 4 10 14 10 22 0 8 -4 18
-10 22 -6 5 -5 8 4 8 11 0 11 3 1 15 -9 11 -9 15 -1 15 7 0 9 5 4 13 -9 15
-14 35 -16 65 0 12 -5 22 -10 22 -5 0 -4 6 2 13 6 8 8 17 4 21 -7 6 -13 29
-15 54 -1 6 -6 12 -12 12 -6 0 -6 4 2 12 8 8 8 16 0 32 -6 11 -12 43 -14 71
-1 27 -3 50 -4 50 -2 0 -11 54 -12 73 -1 6 -4 12 -8 12 -3 0 -7 14 -8 32 -2
18 -8 36 -15 40 -9 6 -9 8 1 8 10 0 10 5 2 21 -6 11 -12 35 -12 52 -1 18 -10
47 -20 65 -10 18 -16 37 -13 43 4 5 1 9 -5 9 -6 0 -8 5 -5 10 3 6 2 10 -2 10
-5 0 -9 8 -10 18 -3 40 -8 62 -13 62 -4 0 -7 6 -8 13 -2 24 -8 47 -15 53 -3 4
-1 16 5 27 9 17 8 19 -6 14 -15 -6 -16 -5 -2 15 12 17 13 25 3 37 -9 12 -9 13
1 7 18 -11 15 10 -5 30 -14 13 -15 18 -5 22 10 3 8 8 -5 19 -10 8 -12 12 -5 8
6 -3 12 -2 12 4 0 5 -6 11 -12 14 -10 3 -10 8 -2 18 5 8 10 26 9 42 0 15 2 27
6 27 5 0 6 9 4 20 -2 11 -1 20 3 20 4 0 8 19 10 43 1 23 3 58 5 79 1 20 6 34
11 31 4 -3 5 5 1 17 -5 15 -2 25 6 31 12 7 11 9 -1 9 -10 0 -11 3 -4 8 7 4 14
25 18 47 8 57 14 84 21 95 3 6 0 10 -7 10 -10 0 -10 2 0 9 17 11 17 21 0 32
-10 7 -10 9 0 9 10 0 10 5 1 21 -8 15 -8 19 0 15 6 -4 11 -4 11 -1 0 4 -5 16
-11 27 -8 15 -8 19 0 14 14 -9 14 0 1 24 -7 13 -7 21 0 25 6 4 8 10 5 15 -3 5
-1 11 5 15 15 9 13 48 -2 40 -7 -4 -6 -1 2 7 16 14 19 36 8 53 -4 6 -3 17 2
25 5 9 4 20 -3 29 -9 12 -9 13 1 7 6 -4 12 -3 12 3 0 5 -5 13 -10 16 -7 4 -7
13 0 24 6 12 5 22 -3 31 -9 10 -9 11 1 6 14 -8 16 3 3 24 -6 8 -7 19 -3 24 10
17 9 101 -2 109 -7 4 -8 10 -1 15 13 10 14 215 0 225 -7 4 -7 10 0 15 13 10
14 215 0 225 -7 4 -7 10 0 15 11 8 14 72 3 87 -4 6 -3 17 2 25 5 9 4 20 -3 29
-9 12 -9 13 1 7 8 -5 11 -1 8 16 -2 13 -9 22 -16 20 -7 -1 -8 2 -4 10 13 20
13 39 1 31 -6 -4 -8 0 -4 10 3 10 2 17 -3 17 -6 0 -10 5 -10 10 0 6 -11 23
-25 38 -17 18 -25 22 -25 12 0 -12 -2 -12 -9 -2 -4 7 -17 15 -27 17 -10 2 -19
4 -19 6 0 4 -56 9 -142 11 -59 2 -89 -1 -85 -7 3 -6 0 -6 -9 0 -8 6 -25 9 -39
7z m-275 -6252 c-3 -5 -12 -10 -18 -10 -7 0 -6 4 3 10 19 12 23 12 15 0z m-25
-174 c0 -2 -8 -10 -17 -17 -16 -13 -17 -12 -4 4 13 16 21 21 21 13z m-6795
-176 c-3 -5 -12 -10 -18 -10 -7 0 -6 4 3 10 19 12 23 12 15 0z m5810 -130 c-3
-5 -1 -10 4 -10 6 0 9 -10 7 -22 -3 -13 -5 -23 -6 -23 -2 0 -9 -37 -12 -62 -1
-7 -5 -13 -10 -13 -5 0 -6 -5 -3 -10 4 -6 3 -16 -2 -23 -5 -7 -9 -24 -8 -39 0
-16 -3 -28 -8 -28 -5 0 -7 -7 -3 -15 3 -8 1 -15 -5 -15 -6 0 -9 -7 -5 -15 3
-8 1 -15 -5 -15 -6 0 -8 -4 -4 -9 3 -5 1 -12 -5 -16 -6 -4 -8 -11 -5 -16 4 -5
2 -9 -2 -9 -5 0 -9 -8 -10 -17 -3 -34 -23 -73 -37 -73 -9 0 -27 17 -41 37 -14
21 -25 33 -25 28 0 -6 -8 5 -16 23 -9 17 -23 32 -31 32 -9 0 -13 6 -9 15 3 9
0 15 -9 15 -8 0 -15 4 -15 9 0 12 -60 86 -61 75 0 -5 -5 4 -9 19 -5 16 -7 34
-4 41 4 11 47 29 97 42 4 1 9 2 12 3 3 0 8 1 11 0 4 0 10 3 13 8 3 4 33 19 66
31 33 13 71 29 85 35 14 6 28 11 32 11 3 1 10 4 14 9 11 10 16 9 9 -3z m-3488
-48 c35 -18 65 -32 68 -32 3 0 30 -11 60 -25 31 -14 60 -25 66 -25 6 0 7 -4 4
-10 -3 -6 1 -7 9 -4 9 3 24 3 34 -2 9 -4 19 -8 22 -9 3 -2 15 -6 27 -10 12 -4
24 -13 27 -20 6 -16 -19 -39 -33 -31 -5 4 -12 2 -15 -3 -3 -4 -25 -12 -48 -16
-54 -10 -47 -8 -85 -28 -18 -10 -33 -14 -33 -10 0 5 -4 2 -9 -5 -4 -7 -14 -14
-22 -15 -8 -2 -18 -5 -24 -8 -5 -3 -24 -6 -41 -8 -25 -2 -33 2 -39 21 -4 13
-9 28 -10 33 -2 6 -6 19 -9 30 -3 11 -9 34 -15 52 -5 17 -7 34 -3 37 3 3 1 6
-4 6 -5 0 -10 8 -11 18 -1 9 -3 31 -6 47 -4 28 9 59 22 53 3 -2 34 -18 68 -36z
m3644 -565 c-10 -9 -11 -8 -5 6 3 10 9 15 12 12 3 -3 0 -11 -7 -18z"/>
<path d="M4130 3781 c0 -6 4 -13 10 -16 6 -3 7 1 4 9 -7 18 -14 21 -14 7z"/>
</g>
</svg>
